<?xml version="1.0" encoding="UTF-8" standalone="no"?>
<svg
   xmlns:dc="http://purl.org/dc/elements/1.1/"
   xmlns:cc="http://creativecommons.org/ns#"
   xmlns:rdf="http://www.w3.org/1999/02/22-rdf-syntax-ns#"
   xmlns:svg="http://www.w3.org/2000/svg"
   xmlns="http://www.w3.org/2000/svg"
   xmlns:sodipodi="http://sodipodi.sourceforge.net/DTD/sodipodi-0.dtd"
   xmlns:inkscape="http://www.inkscape.org/namespaces/inkscape"
   sodipodi:docname="NIBE_AirSite_vector_logo.svg"
   inkscape:version="1.0 (4035a4fb49, 2020-05-01)"
   version="1.1"
   id="svg2"
   viewBox="0 0 1614.0123 448.03148"
   height="126.44444mm"
   width="455.51013mm">
  <defs
     id="defs4">
    <clipPath
       clipPathUnits="userSpaceOnUse"
       id="clipPath4150">
      <path
         d="M 0,595.275 H 841.89 V 0 H 0 Z"
         id="path4152"
         inkscape:connector-curvature="0" />
    </clipPath>
    <clipPath
       clipPathUnits="userSpaceOnUse"
       id="clipPath4198">
      <path
         d="M 0,595.275 H 841.89 V 0 H 0 Z"
         id="path4200"
         inkscape:connector-curvature="0" />
    </clipPath>
  </defs>
  <sodipodi:namedview
     inkscape:document-rotation="0"
     inkscape:window-maximized="1"
     inkscape:window-y="-8"
     inkscape:window-x="-8"
     inkscape:window-height="1017"
     inkscape:window-width="1920"
     fit-margin-bottom="70"
     fit-margin-right="0"
     fit-margin-left="0"
     fit-margin-top="0"
     showgrid="false"
     inkscape:current-layer="g4144"
     inkscape:document-units="px"
     inkscape:cy="400.70861"
     inkscape:cx="443.08242"
     inkscape:zoom="0.53"
     inkscape:pageshadow="2"
     inkscape:pageopacity="0.0"
     borderopacity="1.0"
     bordercolor="#000000"
     pagecolor="#ffffff"
     id="base" />
  <metadata
     id="metadata7">
    <rdf:RDF>
      <cc:Work
         rdf:about="">
        <dc:format>image/svg+xml</dc:format>
        <dc:type
           rdf:resource="http://purl.org/dc/dcmitype/StillImage" />
        <dc:title />
      </cc:Work>
    </rdf:RDF>
  </metadata>
  <g
     transform="translate(449.86325,-540.93362)"
     id="layer1"
     inkscape:groupmode="layer"
     inkscape:label="Layer 1">
    <g
       id="g4144"
       inkscape:label="NIBE AirSite logo"
       transform="matrix(2.9548513,0,0,-2.9548513,-776.9647,1649.3994)">
      <g
         style="fill:#e6e6e6"
         id="g4146">
        <g
           style="fill:#e6e6e6"
           id="g4148"
           clip-path="url(#clipPath4150)">
          <g
             style="fill:#e6e6e6"
             id="g4154"
             transform="translate(186.7192,313.481)">
            <path
               d="m 0,0 v 2.17 h 2.037 c 3.505,0 4.566,3.932 4.566,7.625 V 49.211 C 5.054,51.217 3.749,53.545 1.222,53.545 H 0 v 2.088 H 30.968 L 53.053,25.85 v 23.602 c 0,2.248 -2.528,4.013 -5.542,4.013 h -1.63 v 2.168 H 62.67 v -2.168 h -2.447 c -4.237,0 -4.156,-3.131 -4.156,-9.713 V 0 H 42.376 L 9.453,44.635 V 9.795 c 0,-3.693 0.816,-7.625 4.727,-7.625 h 2.608 V 0 Z"
               style="fill:#e6e6e6;fill-opacity:1;fill-rule:nonzero;stroke:none"
               id="path4156"
               inkscape:connector-curvature="0" />
          </g>
          <g
             style="fill:#e6e6e6"
             id="g4158"
             transform="translate(252.4644,313.481)">
            <path
               d="M 0,0 V 2.17 H 6.193 V 53.465 H 0 v 2.168 H 37.649 V 53.465 H 31.456 V 2.17 h 6.193 V 0 Z"
               style="fill:#e6e6e6;fill-opacity:1;fill-rule:nonzero;stroke:none"
               id="path4160"
               inkscape:connector-curvature="0" />
          </g>
          <g
             style="fill:#e6e6e6"
             id="g4162"
             transform="translate(324.7368,343.585)">
            <path
               d="M 0,0 H 3.502 C 6.68,0 8.146,2.65 8.146,6.264 V 17.42 c 0,4.176 -2.119,5.941 -6.273,5.941 H 0 Z m 0,-27.934 h 2.77 c 6.193,0 6.355,5.537 6.355,7.785 v 10.518 c 0,6.179 -3.098,7.385 -7.172,7.385 H 0 Z m -31.133,-2.17 v 2.17 h 6.194 v 51.295 h -6.194 v 2.168 h 44.74 C 22,25.529 33.572,22.557 33.572,12.283 33.572,2.49 22.734,-0.078 14.748,-0.24 v -1.606 c 1.711,-0.08 3.506,-0.24 5.215,-0.4 7.58,-0.723 14.996,-4.497 14.996,-13.004 0,-15.895 -18.906,-14.854 -30.234,-14.854 z"
               style="fill:#e6e6e6;fill-opacity:1;fill-rule:nonzero;stroke:none"
               id="path4164"
               inkscape:connector-curvature="0" />
          </g>
          <g
             style="fill:#e6e6e6"
             id="g4166"
             transform="translate(360.1406,313.481)">
            <path
               d="M 0,0 V 2.17 H 6.031 V 53.465 H 0 v 2.168 H 54.682 L 55.09,36.125 H 52.4 c -2.281,8.831 -7.824,17.34 -16.705,17.34 h -4.97 V 29.143 h 1.382 c 2.528,0 8.233,2.649 8.965,10.916 h 2.692 V 15.574 H 41.072 C 40.34,24.326 34.635,26.975 32.107,26.975 H 30.725 V 2.17 h 5.54 c 6.194,0 12.631,4.494 17.114,19.023 h 2.445 L 55.416,0 Z"
               style="fill:#e6e6e6;fill-opacity:1;fill-rule:nonzero;stroke:none"
               id="path4168"
               inkscape:connector-curvature="0" />
          </g>
          <g
             style="fill:#e6e6e6"
             id="g4170"
             transform="translate(144.5425,332.8384)">
            <path
               d="m 0,0 c -4.668,0 -8.453,3.785 -8.452,8.452 0,4.668 3.783,8.451 8.452,8.452 C 4.667,16.903 8.45,13.12 8.451,8.452 8.449,3.785 4.666,0.002 0,0"
               style="fill:#e6e6e6;fill-opacity:1;fill-rule:nonzero;stroke:none"
               id="path4172"
               inkscape:connector-curvature="0" />
          </g>
          <g
             style="fill:#e6e6e6"
             id="g4174"
             transform="translate(134.1938,351.6372)">
            <path
               d="M 0,0 C 6.358,6.359 8.282,15.466 5.788,23.497 3.574,16.889 -0.158,10.682 -5.42,5.423 -10.681,0.159 -16.889,-3.574 -23.494,-5.785 -15.468,-8.282 -6.358,-6.356 0,0"
               style="fill:#e6e6e6;fill-opacity:1;fill-rule:nonzero;stroke:none"
               id="path4176"
               inkscape:connector-curvature="0" />
          </g>
          <g
             style="fill:#e6e6e6"
             id="g4178"
             transform="translate(134.1938,330.9399)">
            <path
               d="M 0,0 C -6.358,6.361 -15.465,8.285 -23.494,5.789 -16.887,3.577 -10.681,-0.157 -5.42,-5.417 -0.159,-10.679 3.574,-16.886 5.788,-23.491 8.285,-15.465 6.357,-6.357 0,0"
               style="fill:#e6e6e6;fill-opacity:1;fill-rule:nonzero;stroke:none"
               id="path4180"
               inkscape:connector-curvature="0" />
          </g>
          <g
             style="fill:#e6e6e6"
             id="g4182"
             transform="translate(154.8911,330.9429)">
            <path
               d="m 0,0 c -6.359,-6.36 -8.283,-15.468 -5.788,-23.494 2.213,6.605 5.946,12.812 11.205,18.074 5.265,5.263 11.469,8.994 18.074,11.206 C 15.466,8.282 6.358,6.358 0,0"
               style="fill:#e6e6e6;fill-opacity:1;fill-rule:nonzero;stroke:none"
               id="path4184"
               inkscape:connector-curvature="0" />
          </g>
          <g
             style="fill:#e6e6e6"
             id="g4186"
             transform="translate(154.8911,351.6372)">
            <path
               d="M 0,0 C 6.358,-6.356 15.467,-8.282 23.491,-5.785 16.89,-3.574 10.682,0.159 5.42,5.42 0.157,10.68 -3.575,16.892 -5.789,23.497 -8.285,15.468 -6.359,6.359 0,0"
               style="fill:#e6e6e6;fill-opacity:1;fill-rule:nonzero;stroke:none"
               id="path4188"
               inkscape:connector-curvature="0" />
          </g>
        </g>
      </g>
      <g
         style="fill:#e6e6e6"
         id="g4190"
         transform="translate(522.5931,339.6195)">
        <path
           d="M 0,0 0.441,0.571 Z"
           style="fill:#e6e6e6;fill-opacity:1;fill-rule:nonzero;stroke:none"
           id="path4192"
           inkscape:connector-curvature="0" />
      </g>
      <g
         style="fill:#e6e6e6"
         id="g4194">
        <g
           style="fill:#e6e6e6"
           id="g4196"
           clip-path="url(#clipPath4198)">
          <g
             style="fill:#e6e6e6"
             id="g4202"
             transform="translate(458.6143,358.895)">
            <path
               d="m 0,0 h -0.17 c -2.724,-7.318 -5.446,-14.722 -8,-21.701 H 7.488 Z m 8.339,-45.528 v 2.383 c 5.361,0.681 6.127,1.362 5.021,4.681 -1.106,3.319 -2.808,7.914 -4.679,13.106 H -9.446 c -1.363,-3.83 -2.639,-7.405 -3.744,-10.978 -1.873,-5.363 -1.107,-6.213 5.276,-6.809 v -2.383 h -18.468 v 2.383 c 5.362,0.765 6.554,1.276 9.532,8.766 l 17.616,44.675 2.637,0.767 c 5.278,-14.638 10.979,-30.805 16.424,-45.613 2.724,-7.319 3.83,-8.085 9.361,-8.595 v -2.383 z"
               style="fill:#e6e6e6;fill-opacity:1;fill-rule:nonzero;stroke:none"
               id="path4204"
               inkscape:connector-curvature="0" />
          </g>
          <g
             style="fill:#e6e6e6"
             id="g4206"
             transform="translate(494.6074,363.3203)">
            <path
               d="M 0,0 C 0,2.552 2.042,4.426 4.34,4.426 6.723,4.426 8.595,2.552 8.595,0 8.595,-2.298 6.723,-4.34 4.255,-4.34 2.042,-4.34 0,-2.298 0,0 m -4.511,-49.953 v 2.212 c 5.362,0.512 5.958,1.021 5.958,6.809 v 17.615 c 0,5.192 -0.257,5.616 -5.362,6.383 v 2.041 c 4.34,0.681 8.341,1.788 12.084,3.318 v -29.357 c 0,-5.788 0.596,-6.297 6.042,-6.809 v -2.212 z"
               style="fill:#e6e6e6;fill-opacity:1;fill-rule:nonzero;stroke:none"
               id="path4208"
               inkscape:connector-curvature="0" />
          </g>
          <g
             style="fill:#e6e6e6"
             id="g4210"
             transform="translate(525.1836,342.5562)">
            <path
               d="m 0,0 c 2.553,4.254 6.213,9.021 10.296,9.021 2.893,0 4.937,-2.213 4.937,-4.256 0,-1.702 -1.107,-3.403 -2.723,-4.169 C 11.487,0.17 10.723,0.255 10.212,0.765 9.019,2.043 7.999,2.553 6.638,2.553 4.425,2.553 1.702,0 -0.17,-4.765 v -15.573 c 0,-5.618 0.425,-6.128 6.979,-6.639 v -2.212 h -19.574 v 2.212 c 5.277,0.511 5.872,1.021 5.872,6.639 v 17.616 c 0,5.616 -0.426,5.956 -5.276,6.636 v 1.874 c 4.171,0.679 7.914,1.701 11.999,3.488 L -0.17,0 Z"
               style="fill:#e6e6e6;fill-opacity:1;fill-rule:nonzero;stroke:none"
               id="path4212"
               inkscape:connector-curvature="0" />
          </g>
          <g
             style="fill:#e6e6e6"
             id="g4214"
             transform="translate(573.2744,355.7466)">
            <path
               d="m 0,0 c -1.532,5.446 -3.745,11.318 -11.146,11.318 -6.555,0 -9.448,-4.766 -9.448,-9.361 0,-6.211 4.084,-9.105 10.808,-12.594 6.637,-3.404 14.721,-7.404 14.721,-16.934 0,-8.937 -7.574,-16.084 -18.89,-16.084 -3.491,0 -6.213,0.678 -8.34,1.276 -2.13,0.765 -3.405,1.359 -4.171,1.786 -0.68,1.787 -1.788,9.107 -2.297,13.192 l 2.467,0.595 c 1.361,-5.191 5.192,-13.787 13.956,-13.787 6.383,0 10.212,4.001 10.212,10.214 0,6.295 -4.681,9.275 -11.062,12.678 -5.448,2.893 -14.042,7.15 -14.042,16.765 0,8.169 6.551,15.147 17.53,15.147 3.915,0 7.49,-0.936 10.724,-1.957 C 1.361,9.191 1.786,5.872 2.469,0.511 Z"
               style="fill:#e6e6e6;fill-opacity:1;fill-rule:nonzero;stroke:none"
               id="path4216"
               inkscape:connector-curvature="0" />
          </g>
          <g
             style="fill:#e6e6e6"
             id="g4218"
             transform="translate(585.1572,363.3203)">
            <path
               d="M 0,0 C 0,2.552 2.043,4.426 4.341,4.426 6.723,4.426 8.598,2.552 8.598,0 8.598,-2.298 6.723,-4.34 4.257,-4.34 2.043,-4.34 0,-2.298 0,0 m -4.509,-49.953 v 2.212 c 5.362,0.512 5.957,1.021 5.957,6.809 v 17.615 c 0,5.192 -0.255,5.616 -5.361,6.383 v 2.041 c 4.339,0.681 8.34,1.788 12.085,3.318 v -29.357 c 0,-5.788 0.595,-6.297 6.041,-6.809 v -2.212 z"
               style="fill:#e6e6e6;fill-opacity:1;fill-rule:nonzero;stroke:none"
               id="path4220"
               inkscape:connector-curvature="0" />
          </g>
          <g
             style="fill:#e6e6e6"
             id="g4222"
             transform="translate(617.8643,313.4521)">
            <path
               d="m 0,0 c -1.448,-0.767 -2.808,-1.105 -3.574,-1.105 -5.363,0 -8.34,3.403 -8.34,10.125 v 24.765 h -5.873 l -0.34,0.851 2.298,2.468 h 3.915 v 6.212 l 5.532,5.616 1.191,-0.17 V 37.104 H 4.424 C 5.191,36.252 4.936,34.38 3.916,33.785 h -9.107 v -21.87 c 0,-6.895 2.806,-8.17 4.936,-8.17 2.127,0 4.083,0.851 5.276,1.445 L 5.787,2.979 Z"
               style="fill:#e6e6e6;fill-opacity:1;fill-rule:nonzero;stroke:none"
               id="path4224"
               inkscape:connector-curvature="0" />
          </g>
          <g
             style="fill:#e6e6e6"
             id="g4226"
             transform="translate(642.0283,348.4277)">
            <path
               d="m 0,0 c -3.828,0 -7.572,-3.574 -8.848,-10.468 4.764,0 9.444,0.086 14.381,0.257 1.529,0 2.042,0.511 2.042,1.702 C 7.66,-4.085 4.767,0 0.087,0 Z M 14.469,-27.826 C 9.106,-34.55 3.234,-36.081 0.596,-36.081 c -10.466,0 -16.593,8.508 -16.593,18.125 0,5.873 2.128,11.063 5.616,14.892 3.489,3.916 8.083,6.213 12.425,6.213 H 2.13 c 7.062,0 12.766,-6.298 12.766,-12.934 0,-1.703 -0.427,-2.384 -1.959,-2.724 -1.447,-0.255 -12.083,-1.108 -22.211,-1.448 0.085,-11.572 6.722,-16.336 12.679,-16.336 3.405,0 6.639,1.359 9.7,4.253 z"
               style="fill:#e6e6e6;fill-opacity:1;fill-rule:nonzero;stroke:none"
               id="path4228"
               inkscape:connector-curvature="0" />
          </g>
        </g>
      </g>
    </g>
  </g>
</svg>
